<svg xmlns="http://www.w3.org/2000/svg" viewBox="0 0 24 24" width="24" height="24">
  <rect x="5" y="6" width="14" height="12" rx="1" fill="#D3D3D3" stroke="#696969" stroke-width="1"/>
  <path d="M7 6 L7 4" stroke="#696969" stroke-width="1"/>
  <path d="M10 6 L10 4" stroke="#696969" stroke-width="1"/>
  <path d="M13 6 L13 4" stroke="#696969" stroke-width="1"/>
  <path d="M16 6 L16 4" stroke="#696969" stroke-width="1"/>
  <path d="M7 18 L7 20" stroke="#696969" stroke-width="1"/>
  <path d="M10 18 L10 20" stroke="#696969" stroke-width="1"/>
  <path d="M13 18 L13 20" stroke="#696969" stroke-width="1"/>
  <path d="M16 18 L16 20" stroke="#696969" stroke-width="1"/>
  <rect x="7" y="8" width="2" height="3" fill="#4682B4"/>
  <rect x="10" y="8" width="2" height="3" fill="#4682B4"/>
  <rect x="13" y="8" width="2" height="3" fill="#4682B4"/>
  <rect x="7" y="13" width="2" height="3" fill="#4682B4"/>
  <rect x="10" y="13" width="2" height="3" fill="#4682B4"/>
  <rect x="13" y="13" width="2" height="3" fill="#4682B4"/>
</svg>