<svg xmlns="http://www.w3.org/2000/svg" viewBox="0 0 24 24" width="24" height="24">
  <!-- Memory Base -->
  <rect x="4" y="8" width="16" height="8" rx="1" ry="1" fill="#32CD32" stroke="#006400" stroke-width="1"/>

  <!-- Memory Chips -->
  <rect x="6" y="9" width="2" height="6" fill="#1E3F66" stroke="#000000" stroke-width="0.5"/>
  <rect x="9" y="9" width="2" height="6" fill="#1E3F66" stroke="#000000" stroke-width="0.5"/>
  <rect x="12" y="9" width="2" height="6" fill="#1E3F66" stroke="#000000" stroke-width="0.5"/>
  <rect x="15" y="9" width="2" height="6" fill="#1E3F66" stroke="#000000" stroke-width="0.5"/>

  <!-- Memory Connectors -->
  <rect x="5" y="16" width="1" height="1" fill="#C0C0C0" stroke="#808080" stroke-width="0.5"/>
  <rect x="7" y="16" width="1" height="1" fill="#C0C0C0" stroke="#808080" stroke-width="0.5"/>
  <rect x="9" y="16" width="1" height="1" fill="#C0C0C0" stroke="#808080" stroke-width="0.5"/>
  <rect x="11" y="16" width="1" height="1" fill="#C0C0C0" stroke="#808080" stroke-width="0.5"/>
  <rect x="13" y="16" width="1" height="1" fill="#C0C0C0" stroke="#808080" stroke-width="0.5"/>
  <rect x="15" y="16" width="1" height="1" fill="#C0C0C0" stroke="#808080" stroke-width="0.5"/>
  <rect x="17" y="16" width="1" height="1" fill="#C0C0C0" stroke="#808080" stroke-width="0.5"/>

  <!-- Circuit Traces -->
  <line x1="7" y1="7" x2="7" y2="8" stroke="#FFD700" stroke-width="0.5"/>
  <line x1="10" y1="7" x2="10" y2="8" stroke="#FFD700" stroke-width="0.5"/>
  <line x1="13" y1="7" x2="13" y2="8" stroke="#FFD700" stroke-width="0.5"/>
  <line x1="16" y1="7" x2="16" y2="8" stroke="#FFD700" stroke-width="0.5"/>
</svg>