<svg xmlns="http://www.w3.org/2000/svg" viewBox="0 0 24 24" width="24" height="24">
  <!-- Device 1 (Sender) -->
  <rect x="3" y="8" width="6" height="8" rx="1" ry="1" fill="#A9A9A9" stroke="#696969" stroke-width="1"/>

  <!-- IR Emitter -->
  <circle cx="9" cy="12" r="1" fill="#FF4500" stroke="#8B0000" stroke-width="0.5"/>

  <!-- IR Signals -->
  <path d="M10 10 Q 12 12 14 10" fill="none" stroke="#FF4500" stroke-width="0.8" stroke-dasharray="1,0.8"/>
  <path d="M10 12 Q 12 12 14 12" fill="none" stroke="#FF4500" stroke-width="0.8" stroke-dasharray="1,0.8"/>
  <path d="M10 14 Q 12 12 14 14" fill="none" stroke="#FF4500" stroke-width="0.8" stroke-dasharray="1,0.8"/>

  <!-- Device 2 (Receiver) -->
  <rect x="15" y="8" width="6" height="8" rx="1" ry="1" fill="#A9A9A9" stroke="#696969" stroke-width="1"/>

  <!-- IR Receiver -->
  <circle cx="15" cy="12" r="1" fill="#FF4500" stroke="#8B0000" stroke-width="0.5"/>

  <!-- Device Details -->
  <path d="M5 10 L7 10" stroke="#696969" stroke-width="0.8"/>
  <path d="M5 12 L7 12" stroke="#696969" stroke-width="0.8"/>
  <path d="M5 14 L7 14" stroke="#696969" stroke-width="0.8"/>

  <path d="M17 10 L19 10" stroke="#696969" stroke-width="0.8"/>
  <path d="M17 12 L19 12" stroke="#696969" stroke-width="0.8"/>
  <path d="M17 14 L19 14" stroke="#696969" stroke-width="0.8"/>
</svg>