<?xml version="1.0" encoding="UTF-8"?>
<svg width="24" height="24" viewBox="0 0 24 24" xmlns="http://www.w3.org/2000/svg">
  <!-- 扫描仪底座 -->
  <rect x="3" y="14" width="18" height="6" rx="1" fill="#444444" stroke="#333333" stroke-width="0.5"/>

  <!-- 扫描仪玻璃平台 -->
  <rect x="4" y="13" width="16" height="1" rx="0.5" fill="#A0D8EF" stroke="#88C6E5" stroke-width="0.5" opacity="0.8"/>

  <!-- 扫描仪盖子（半开状态） -->
  <path d="M4,13 C4,8 4,6 4,4 C4,3.5 4.5,3 5,3 L19,3 C19.5,3 20,3.5 20,4 L20,13" fill="#DDDDDD" stroke="#BBBBBB" stroke-width="0.5"/>

  <!-- 扫描光线 -->
  <rect x="5" y="8" width="14" height="0.5" fill="#FFFFFF" opacity="0.9">
  </rect>

  <!-- 文档 -->
  <rect x="6" y="6" width="12" height="6" fill="#FFFFFF" stroke="#DDDDDD" stroke-width="0.5"/>
  <line x1="8" y1="8" x2="16" y2="8" stroke="#AAAAAA" stroke-width="0.5"/>
  <line x1="8" y1="10" x2="14" y2="10" stroke="#AAAAAA" stroke-width="0.5"/>

  <!-- 控制面板 -->
  <rect x="16" y="15" width="4" height="2" rx="0.5" fill="#333333"/>

  <!-- 按钮和指示灯 -->
  <circle cx="17" cy="16" r="0.5" fill="#FF3333"/>
  <circle cx="19" cy="16" r="0.5" fill="#33FF33"/>

  <!-- 前面板细节 -->
  <rect x="5" y="16" width="8" height="1" rx="0.5" fill="#333333"/>
  <rect x="5" y="18" width="4" height="0.5" rx="0.25" fill="#555555"/>
</svg>