<svg xmlns="http://www.w3.org/2000/svg" width="24" height="24" viewBox="0 0 24 24" fill="none">
  <!-- 打印机主体 -->
  <rect x="5" y="9" width="14" height="8" rx="1" fill="#546E7A"/>

  <!-- 打印机顶部 -->
  <path d="M6 9V5C6 4.44772 6.44772 4 7 4H17C17.5523 4 18 4.44772 18 5V9" fill="#90A4AE"/>
  <path d="M6 9V5C6 4.44772 6.44772 4 7 4H17C17.5523 4 18 4.44772 18 5V9" stroke="#455A64" stroke-width="0.5"/>

  <!-- 出纸口和纸张 -->
  <path d="M8 12H16V19H8V12Z" fill="#FFFFFF"/>
  <path d="M8 12H16V19H8V12Z" stroke="#455A64" stroke-width="0.5"/>

  <!-- 打印机控制面板 -->
  <rect x="14" y="11" width="2" height="1" rx="0.5" fill="#4CAF50"/>

  <!-- 打印机细节 -->
  <rect x="5" y="9" width="14" height="8" rx="1" stroke="#455A64" stroke-width="0.5"/>

  <!-- 纸张线条 -->
  <line x1="10" y1="14" x2="14" y2="14" stroke="#BDBDBD" stroke-width="0.5"/>
  <line x1="10" y1="16" x2="14" y2="16" stroke="#BDBDBD" stroke-width="0.5"/>
</svg>