<svg xmlns="http://www.w3.org/2000/svg" width="24" height="24" viewBox="0 0 24 24" fill="none">
  <!-- 扳手主体 -->
  <path d="M20.2 12.5L15.6 7.9C16.1 5.7 15.4 3.3 13.6 1.7C13.2 1.3 12.6 1.6 12.6 2.1L12.5 5L10 7.5L7.1 7.6C6.6 7.6 6.3 8.2 6.7 8.6C8.3 10.4 10.7 11.1 12.9 10.6L17.5 15.2C18.3 16 19.6 16 20.4 15.2L20.5 15.1C21.2 14.3 21.2 13 20.2 12.5Z" fill="#78909C"/>

  <!-- 扳手高光 -->
  <path d="M19.8 12.9L15.2 8.3C15.7 6.1 15 3.7 13.2 2.1C12.8 1.7 12.2 2 12.2 2.5L12.1 5.4L9.6 7.9L6.7 8C6.2 8 5.9 8.6 6.3 9C7.9 10.8 10.3 11.5 12.5 11L17.1 15.6C17.9 16.4 19.2 16.4 20 15.6L20.1 15.5C20.8 14.7 20.8 13.4 19.8 12.9Z" fill="#90A4AE"/>

  <!-- 扳手边缘 -->
  <path d="M20.2 12.5L15.6 7.9C16.1 5.7 15.4 3.3 13.6 1.7C13.2 1.3 12.6 1.6 12.6 2.1L12.5 5L10 7.5L7.1 7.6C6.6 7.6 6.3 8.2 6.7 8.6C8.3 10.4 10.7 11.1 12.9 10.6L17.5 15.2C18.3 16 19.6 16 20.4 15.2L20.5 15.1C21.2 14.3 21.2 13 20.2 12.5Z" stroke="#455A64" stroke-width="0.5"/>

  <!-- 扳手头部细节 -->
  <circle cx="10.5" cy="7" r="1" fill="#455A64"/>

  <!-- 扳手手柄纹理 -->
  <line x1="18" y1="13.5" x2="19" y2="14.5" stroke="#455A64" stroke-width="0.3"/>
  <line x1="16.5" y1="12" x2="17.5" y2="13" stroke="#455A64" stroke-width="0.3"/>
  <line x1="15" y1="10.5" x2="16" y2="11.5" stroke="#455A64" stroke-width="0.3"/>
</svg>