<svg xmlns="http://www.w3.org/2000/svg" width="24" height="24" viewBox="0 0 24 24" fill="none">
  <!-- 旗杆 -->
  <line x1="8" y1="4" x2="8" y2="20" stroke="#78909C" stroke-width="1.5" stroke-linecap="round"/>

  <!-- 纸质旗帜主体 -->
  <path d="M8 4C8 4 9 5 12 5C15 5 16 4 16 4V12C16 12 15 13 12 13C9 13 8 12 8 12V4Z" fill="#ECEFF1"/>

  <!-- 纸质旗帜边缘 -->
  <path d="M8 4C8 4 9 5 12 5C15 5 16 4 16 4V12C16 12 15 13 12 13C9 13 8 12 8 12V4Z" stroke="#B0BEC5" stroke-width="0.5"/>

  <!-- 纸质旗帜折痕 -->
  <path d="M10 5.5C10.6667 6 12.4 6.8 15 6" stroke="#B0BEC5" stroke-width="0.5" stroke-linecap="round"/>
  <path d="M10 8.5C10.6667 9 12.4 9.8 15 9" stroke="#B0BEC5" stroke-width="0.5" stroke-linecap="round"/>

  <!-- 纸质旗帜波浪效果 -->
  <path d="M16 4C16 4 15.5 4.5 16 5C16.5 5.5 16 6 16 6" stroke="#B0BEC5" stroke-width="0.5"/>
  <path d="M16 8C16 8 15.5 8.5 16 9C16.5 9.5 16 10 16 10" stroke="#B0BEC5" stroke-width="0.5"/>

  <!-- 旗帜底部细节 -->
  <path d="M8 12C8 12 9.5 12.5 12 12.5C14.5 12.5 16 12 16 12" stroke="#B0BEC5" stroke-width="0.5" stroke-linecap="round"/>
</svg>