<svg xmlns="http://www.w3.org/2000/svg" width="24" height="24" viewBox="0 0 24 24" fill="none">
  <!-- 缩略图外框 -->
  <rect x="5" y="6" width="14" height="12" rx="1" fill="#E0E0E0" stroke="#BDBDBD" stroke-width="0.5"/>

  <!-- 缩略图内容 - 山峰 -->
  <path d="M5 14L8 11L11 14L16 9L19 14V17C19 17.5523 18.5523 18 18 18H6C5.44772 18 5 17.5523 5 17V14Z" fill="#81C784"/>

  <!-- 缩略图内容 - 太阳 -->
  <circle cx="16" cy="8" r="2" fill="#FFB74D"/>

  <!-- 缩略图内容 - 细节线条 -->
  <path d="M5 14L8 11L11 14L16 9L19 14" stroke="#388E3C" stroke-width="0.5"/>

  <!-- 缩略图内容 - 山峰细节 -->
  <path d="M8 11L9.5 12.5L11 14" stroke="#388E3C" stroke-width="0.5"/>

  <!-- 缩略图内容 - 太阳光芒 -->
  <path d="M16 5.5V6.5M18.5 8H17.5M16 10.5V9.5M13.5 8H14.5" stroke="#F57C00" stroke-width="0.5"/>
</svg>