<svg xmlns="http://www.w3.org/2000/svg" width="24" height="24" viewBox="0 0 24 24" fill="none">
  <!-- 扳手图标 -->
  <path d="M6.5 4C4.57 4 3 5.57 3 7.5C3 8.4 3.35 9.23 3.93 9.85L11.07 16.99C11.7 17.57 12.52 17.92 13.42 17.92C15.36 17.92 16.92 16.35 16.92 14.42C16.92 13.52 16.57 12.7 16 12.07L8.85 4.93C8.23 4.35 7.4 4 6.5 4Z" fill="#757575"/>

  <!-- 螺丝刀图标 -->
  <path d="M19.61 8.67L15.33 4.39C15.14 4.2 14.79 4.2 14.6 4.39L13.18 5.81C12.99 6 12.99 6.35 13.18 6.54L17.46 10.82C17.65 11.01 18 11.01 18.19 10.82L19.61 9.4C19.8 9.21 19.8 8.86 19.61 8.67Z" fill="#FF5722"/>

  <!-- 螺丝刀手柄 -->
  <path d="M20.71 7.57L21.71 6.57C22.1 6.18 22.1 5.55 21.71 5.16L18.84 2.29C18.45 1.9 17.82 1.9 17.43 2.29L16.43 3.29L20.71 7.57Z" fill="#E64A19"/>

  <!-- 扳手细节 -->
  <circle cx="6.5" cy="7.5" r="1.5" fill="#9E9E9E"/>

  <!-- 高光效果 -->
  <path d="M6.5 4.5C5.12 4.5 4 5.62 4 7C4 7.74 4.29 8.42 4.76 8.92L11.57 15.73C12.07 16.2 12.75 16.5 13.5 16.5C14.88 16.5 16 15.38 16 14C16 13.25 15.71 12.57 15.24 12.07L8.43 5.26C7.93 4.79 7.25 4.5 6.5 4.5Z" fill="#9E9E9E"/>
</svg>