<svg xmlns="http://www.w3.org/2000/svg" width="24" height="24" viewBox="0 0 24 24" fill="none">
  <!-- 苹果标志 - 被咬了一口的苹果 -->
  <path d="M16.2 5.2C15.2 6.3 13.7 6.1 12.4 5.5C11.2 4.9 10.1 5 9 5.9C7.1 7.6 7.4 10.7 8.8 13.1C9.5 14.3 10.4 15.5 11.6 15.5C12.7 15.5 13.1 14.8 14.4 14.8C15.7 14.8 16.1 15.5 17.3 15.5C18.5 15.5 19.4 14.2 20.1 13C20.5 12.3 20.7 11.9 21 11.1C19.1 10.4 18.5 8.1 20.3 7C19.6 6 18.3 5.3 17 5.3C16.7 5.3 16.5 5.2 16.2 5.2Z" fill="#F8F8F8"/>
  <path d="M14.5 3.5C14.9 2.7 15.1 1.8 15 1C14.1 1.1 13.1 1.6 12.5 2.3C11.9 3 11.6 3.9 11.7 4.7C12.6 4.7 13.9 4.3 14.5 3.5Z" fill="#F8F8F8"/>
</svg>