<?xml version="1.0" encoding="UTF-8"?>
<svg width="24px" height="24px" viewBox="0 0 24 24" version="1.1" xmlns="http://www.w3.org/2000/svg" xmlns:xlink="http://www.w3.org/1999/xlink">
    <g id="清除" stroke="none" stroke-width="1" fill="none" fill-rule="evenodd">
        <path d="M12,2 C17.5228,2 22,6.47715 22,12 C22,17.5228 17.5228,22 12,22 C6.47715,22 2,17.5228 2,12 C2,6.47715 6.47715,2 12,2 Z M12,4 C7.58172,4 4,7.58172 4,12 C4,16.4183 7.58172,20 12,20 C16.4183,20 20,16.4183 20,12 C20,7.58172 16.4183,4 12,4 Z M15.7071,8.29289 C16.0976,8.68342 16.0976,9.31658 15.7071,9.70711 L13.4142,12 L15.7071,14.2929 C16.0976,14.6834 16.0976,15.3166 15.7071,15.7071 C15.3166,16.0976 14.6834,16.0976 14.2929,15.7071 L12,13.4142 L9.70711,15.7071 C9.31658,16.0976 8.68342,16.0976 8.29289,15.7071 C7.90237,15.3166 7.90237,14.6834 8.29289,14.2929 L10.5858,12 L8.29289,9.70711 C7.90237,9.31658 7.90237,8.68342 8.29289,8.29289 C8.68342,7.90237 9.31658,7.90237 9.70711,8.29289 L12,10.5858 L14.2929,8.29289 C14.6834,7.90237 15.3166,7.90237 15.7071,8.29289 Z" id="形状结合" fill="#000000" fill-rule="nonzero"></path>
    </g>
</svg>