<svg xmlns="http://www.w3.org/2000/svg" width="24" height="24" viewBox="0 0 24 24" fill="none">
  <!-- 回形针主体 - 简化版 -->
  <path d="M16 9.5V15C16 17.2091 14.2091 19 12 19C9.79086 19 8 17.2091 8 15V8C8 6.34315 9.34315 5 11 5C12.6569 5 14 6.34315 14 8V14.5C14 15.3284 13.3284 16 12.5 16C11.6716 16 11 15.3284 11 14.5V9.5"
        stroke="#43A047"
        stroke-width="2"
        stroke-linecap="round"
        fill="none"/>

  <!-- 回形针高光 -->
  <path d="M11 9.5V14.5C11 15.3284 11.6716 16 12.5 16C13.3284 16 14 15.3284 14 14.5V8C14 6.34315 12.6569 5 11 5"
        stroke="#66BB6A"
        stroke-width="1"
        stroke-linecap="round"
        fill="none"/>
</svg>