<svg xmlns="http://www.w3.org/2000/svg" width="24" height="24" viewBox="0 0 24 24" fill="none" transform="scale(1.333)" transform-origin="12 12">
  <!-- 笔记主体 -->
  <path d="M6 4C6 3.44772 6.44772 3 7 3H14C14.2652 3 14.5196 3.10536 14.7071 3.29289L17.7071 6.29289C17.8946 6.48043 18 6.73478 18 7V20C18 20.5523 17.5523 21 17 21H7C6.44772 21 6 20.5523 6 20V4Z" fill="#FFF9C4"/>
  <path d="M6 4C6 3.44772 6.44772 3 7 3H14C14.2652 3 14.5196 3.10536 14.7071 3.29289L17.7071 6.29289C17.8946 6.48043 18 6.73478 18 7V20C18 20.5523 17.5523 21 17 21H7C6.44772 21 6 20.5523 6 20V4Z" stroke="#FFE082" stroke-width="0.5"/>
  
  <!-- 笔记折角 -->
  <path d="M14 3V7H18L14 3Z" fill="#FFF176"/>
  <path d="M14 3V7H18" stroke="#FFE082" stroke-width="0.5"/>
  
  <!-- 笔记线条 -->
  <line x1="8" y1="10" x2="16" y2="10" stroke="#FFA726" stroke-width="0.75"/>
  <line x1="8" y1="13" x2="16" y2="13" stroke="#FFA726" stroke-width="0.75"/>
  <line x1="8" y1="16" x2="13" y2="16" stroke="#FFA726" stroke-width="0.75"/>
  
  <!-- 笔记顶部装饰 -->
  <line x1="8" y1="6" x2="12" y2="6" stroke="#FFA726" stroke-width="0.75"/>
</svg>