<svg xmlns="http://www.w3.org/2000/svg" width="24" height="24" viewBox="0 0 24 24" fill="none">
  <!-- 外框 - 圆形边框 -->
  <circle cx="12" cy="12" r="10" stroke="#333333" stroke-width="1.5" fill="none"/>

  <!-- 时钟表盘 - 内圆 -->
  <circle cx="12" cy="12" r="8.5" fill="#F5F5F5" stroke="#666666" stroke-width="0.5"/>

  <!-- 时钟刻度 - 小时刻度 -->
  <line x1="12" y1="5" x2="12" y2="6.5" stroke="#333333" stroke-width="1" stroke-linecap="round"/>
  <line x1="17" y1="7" x2="16" y2="8" stroke="#333333" stroke-width="1" stroke-linecap="round"/>
  <line x1="19" y1="12" x2="17.5" y2="12" stroke="#333333" stroke-width="1" stroke-linecap="round"/>
  <line x1="17" y1="17" x2="16" y2="16" stroke="#333333" stroke-width="1" stroke-linecap="round"/>
  <line x1="12" y1="19" x2="12" y2="17.5" stroke="#333333" stroke-width="1" stroke-linecap="round"/>
  <line x1="7" y1="17" x2="8" y2="16" stroke="#333333" stroke-width="1" stroke-linecap="round"/>
  <line x1="5" y1="12" x2="6.5" y2="12" stroke="#333333" stroke-width="1" stroke-linecap="round"/>
  <line x1="7" y1="7" x2="8" y2="8" stroke="#333333" stroke-width="1" stroke-linecap="round"/>

  <!-- 时钟中心点 -->
  <circle cx="12" cy="12" r="0.7" fill="#333333"/>

  <!-- 时针 - 指向11点钟方向 -->
  <line x1="12" y1="12" x2="9" y2="8" stroke="#333333" stroke-width="1.2" stroke-linecap="round"/>

  <!-- 分针 - 指向11点钟方向，接近12点 -->
  <line x1="12" y1="12" x2="10.5" y2="6.5" stroke="#333333" stroke-width="0.8" stroke-linecap="round"/>

  <!-- 过期指示 - 红色半透明扇形覆盖，表示时间已过期 -->
  <path d="M 12 12 L 18 6 A 8.5 8.5 0 0 1 18 18 L 12 12" fill="#E53935" fill-opacity="0.3" stroke="#E53935" stroke-width="0.5"/>

  <!-- 过期标记 - 红色感叹号 -->
  <line x1="16" y1="8" x2="16" y2="12" stroke="#E53935" stroke-width="1.2" stroke-linecap="round"/>
  <circle cx="16" cy="14" r="0.6" fill="#E53935"/>
</svg>