<svg t="1767452644942" class="icon" viewBox="0 0 1170 1024" version="1.1" xmlns="http://www.w3.org/2000/svg" p-id="1611" width="200" height="200"><path d="M1170.285714 138.971429V1024H0V0h438.857143l114.029714 65.828571H1170.285714v73.142858z m-73.142857 0H679.497143l185.051428 106.788571H1097.142857V138.971429z m0 179.931428h-251.172571l-0.292572 0.438857L419.254857 73.142857H73.142857v877.714286h1024V318.902857zM433.810286 402.285714v48.713143h-171.154286v109.494857H425.691429v48.713143H262.656v168.594286H212.114286V402.285714h221.696z m289.28 0v48.713143H613.595429v327.021714h-51.419429V451.291429h-108.251429v-48.713143h269.165715V402.285714z m175.542857 0c78.336 0 117.248 38.034286 117.248 114.322286s-39.716571 113.444571-118.125714 113.444571h-85.650286v146.285715h-49.737143V402.285714h136.265143z m-85.723429 180.736h81.700572c18.870857 1.316571 37.668571-4.388571 52.662857-15.872a67.803429 67.803429 0 0 0 17.188571-50.541714 62.537143 62.537143 0 0 0-17.188571-49.737143 78.409143 78.409143 0 0 0-53.906286-15.872H812.617143l0.365714 132.022857z" fill="#000000" p-id="1612"></path></svg>