<svg t="1767453200415" class="icon" viewBox="0 0 1024 1024" version="1.1" xmlns="http://www.w3.org/2000/svg" p-id="2629" width="200" height="200"><path d="M856.746667 581.973333C903.253333 589.226667 938.666667 629.333333 938.666667 677.973333 938.666667 715.946667 917.333333 748.8 885.333333 764.586667L878.08 768 391.68 768 390.826667 768 390.826667 768C328.96 768 279.04 717.226667 279.04 655.36 279.04 593.066667 329.386667 542.72 391.68 542.72L401.066667 543.146667 400.64 534.613333C400.64 456.96 463.786667 393.813333 541.44 393.813333 596.053333 393.813333 643.413333 424.96 666.88 469.333333 686.08 457.813333 709.12 450.133333 734.293333 450.133333 802.133333 450.133333 857.173333 505.173333 857.173333 573.013333L856.746667 581.973333M376.32 518.826667C307.626667 526.506667 254.293333 584.533333 254.293333 655.36 254.293333 684.373333 263.253333 710.826667 277.333333 733.013333L201.813333 733.013333C137.386667 733.013333 85.333333 680.96 85.333333 616.533333 85.333333 554.666667 133.12 504.746667 193.28 500.48L190.293333 471.893333C190.293333 399.36 249.173333 341.333333 321.706667 341.333333 348.586667 341.333333 374.186667 349.013333 395.093333 362.666667 424.533333 303.36 486.4 262.4 557.653333 262.4 651.52 262.4 728.746667 334.08 738.133333 425.386667L734.293333 425.386667C713.813333 425.386667 694.186667 429.653333 675.84 437.333333 645.12 394.666667 595.626667 368.64 541.44 368.64 455.253333 368.64 384 434.773333 376.32 518.826667Z" p-id="2630"></path></svg>