<?xml version="1.0" encoding="UTF-8"?>
<svg width="24px" height="24px" viewBox="0 0 24 24" version="1.1" xmlns="http://www.w3.org/2000/svg" xmlns:xlink="http://www.w3.org/1999/xlink">
    <title>搜索</title>
    <g id="搜索" stroke="none" stroke-width="1" fill="none" fill-rule="evenodd">
        <path d="M10.5,3 C14.0899,3 17,5.91015 17,9.5 C17,11.1168 16.4116,12.5963 15.4366,13.7496 L20.7071,19.0201 C21.0976,19.4106 21.0976,20.0438 20.7071,20.4343 C20.3166,20.8248 19.6834,20.8248 19.2929,20.4343 L14.0224,15.1638 C12.8691,16.1388 11.3896,16.7272 9.77273,16.7272 C6.18288,16.7272 3.27273,13.817 3.27273,10.2272 C3.27273,6.63733 6.18288,3.72718 9.77273,3.72718 L10.5,3 Z M10.5,5 C7.46243,5 5,7.46243 5,10.5 C5,13.5376 7.46243,16 10.5,16 C13.5376,16 16,13.5376 16,10.5 C16,7.46243 13.5376,5 10.5,5 Z" id="形状结合" fill="#000000" fill-rule="nonzero"></path>
    </g>
</svg>